<?xml version="1.0" encoding="UTF-8"?>
<svg id="_图层_2" data-name="图层 2" xmlns="http://www.w3.org/2000/svg" viewBox="0 0 42 38.08">
  <defs>
    <style>
      .cls-1 {
        fill: #fff;
      }

      .cls-2 {
        fill: #BBBBBB;
      }

      .cls-3 {
        fill: #AAAAAA;
      }

      .cls-4 {
        fill: #999999;
      }
    </style>
  </defs>
  <g id="SCUIM原创">
    <path id="_矩形_12914-2" data-name="矩形 12914-2" class="cls-4" d="M10.36,0h27.65c2.21,0,4,1.79,4,4v28.08c0,3.31-2.69,6-6,6H10.36c-2.21,0-4-1.79-4-4V4C6.36,1.79,8.15,0,10.36,0Z"/>
    <path id="_矩形_12915" data-name="矩形 12915" class="cls-1" d="M18.57,10.71h11.22c.98,0,1.77,.79,1.77,1.77h0c0,.98-.79,1.77-1.77,1.77h-11.22c-.98,0-1.77-.79-1.77-1.77h0c0-.98,.79-1.77,1.77-1.77Z"/>
    <path id="_路径_12566" data-name="路径 12566" class="cls-3" d="M27.83,28c-2.09,3.62-.61,7.18,2.93,10.07h5.15c3.35,0,6.06-2.71,6.06-6.06h0V8.49c-2.14,20.47-14.14,19.51-14.14,19.51Z"/>
    <path id="_路径_12567-2" data-name="路径 12567-2" class="cls-2" d="M.05,28H27.86s-1.41,7.75,8.1,10.03H9.14S-.79,38.35,.05,28Z"/>
  </g>
</svg>
